<svg width="1392" height="109" viewBox="0 0 1392 109" fill="none" xmlns="http://www.w3.org/2000/svg">
<path d="M1388.89 0.297363H3.08467C1.37096 0.297363 0 1.68311 0 3.41528V105.44C0 107.172 1.37096 108.558 3.08467 108.558H235.227C271.365 108.558 302.255 85.9533 314.85 53.973C316.093 50.8118 320.763 51.7429 320.784 55.1423L320.913 105.462C320.913 107.172 322.305 108.58 323.997 108.58H424.956C426.648 108.58 428.041 107.194 428.041 105.462L428.169 55.1423C428.169 51.7429 432.861 50.7902 434.103 53.973C446.699 85.9533 477.588 108.558 513.726 108.558H1067.6C1069.29 108.558 1070.68 107.172 1070.68 105.44L1070.81 55.1423C1070.81 51.7429 1075.5 50.7902 1076.74 53.973C1089.34 85.9533 1120.23 108.558 1156.37 108.558H1388.92C1390.63 108.558 1392 107.172 1392 105.44V3.41528C1392 1.68311 1390.63 0.297363 1388.92 0.297363H1388.89Z" fill="#151515"/>
</svg>
