<svg width="470" height="138" viewBox="0 0 470 138" fill="none" xmlns="http://www.w3.org/2000/svg">
<path d="M126.375 42.0283C121.787 37.0677 115.539 34.4771 108.051 34.4771C89.9956 34.4771 76.375 49.2694 76.375 68.891C76.375 90.5305 92.4706 102.212 107.615 102.212C112.055 102.212 119.896 101.145 126.375 94.6398V101.324H143.001V36.4424H126.375V42.0283ZM126.049 68.2342C126.049 78.3497 119.738 85.1442 110.348 85.1442C100.847 85.1442 94.2099 78.4601 94.2099 68.891C94.2099 58.6809 100.847 51.5448 110.348 51.5448C119.591 51.5448 126.049 58.4076 126.049 68.2342Z" fill="#231F20"/>
<path d="M184.646 34.4771C178.513 34.4771 173.258 36.3162 169.217 39.8317V36.4686H152.297V101.261H170.442V66.9835C170.442 56.7734 174.068 51.8075 181.535 51.8075C188.603 51.8075 192.181 56.9152 192.181 66.9835V101.261H210.326V63.6519C210.326 45.9274 200.247 34.4771 184.646 34.4771Z" fill="#231F20"/>
<path d="M257.341 69.4006C257.341 77.6034 256.049 85.9901 246.464 85.9901C241.083 85.9901 235.586 84.0195 235.586 69.4006V36.2793H217.431V71.4079C217.431 97.8608 231.887 103.415 244.015 103.415C247.389 103.415 253.316 102.643 258.56 98.0184V101.408H275.491V36.2793H257.341V69.4006Z" fill="#231F20"/>
<path d="M331.582 42.1649C326.999 37.115 320.746 34.4771 313.263 34.4771C295.208 34.4771 281.592 49.5374 281.592 69.5006C281.592 91.5289 297.683 103.415 312.827 103.415C317.267 103.415 325.108 102.328 331.582 95.7065V101.413H348.208V36.4739H331.582V42.1649ZM331.256 68.8332C331.256 79.1275 324.945 86.0428 315.554 86.0428C306.054 86.0428 299.417 79.2378 299.417 69.5006C299.417 59.1065 306.054 51.8443 315.554 51.8443C324.798 51.8443 331.256 58.8333 331.256 68.8332Z" fill="#231F20"/>
<path d="M374.708 39.5793V36.5367H358.434V101.797H375.885V66.9991V66.8362C375.885 64.6607 375.88 58.8803 379.18 55.4857C380.988 53.6255 383.605 52.6849 386.973 52.7269L388.607 52.7427V35.2335L387.141 35.0917C382.386 34.6292 377.924 36.295 374.708 39.5793Z" fill="#231F20"/>
<path d="M457.54 36.2793H438.213L425.417 69.8315L413.2 36.2793H393.914L414.004 85.0915C415.16 87.8976 415.123 91.04 413.904 93.8198L411.933 98.3232C410.362 101.25 408.381 102.764 403.305 102.685H390.756V119.222H408.092C417.01 119.222 422.39 114.629 426.773 106.5L427.325 105.265C428.612 102.737 457.54 36.2793 457.54 36.2793Z" fill="#231F20"/>
<path d="M24.8985 98.0134C24.5359 97.7454 24.7671 97.1779 25.2138 97.2304C28.1933 97.5878 34.1733 97.6929 39.6383 93.8516C40.7261 93.0844 44.4623 90.3886 46.3856 85.5489C47.673 82.3067 47.8201 78.912 47.941 76.2111C48.0146 74.5505 47.941 73.3367 47.941 72.58V58.5705V21.2139H69.2126V57.5301C69.2126 57.5301 69.2652 74.3456 69.2126 75.6908C69.1285 77.756 68.9131 82.1017 67.1369 86.5841C64.5778 93.0423 59.3125 96.8626 57.7991 97.9976C48.9867 104.603 39.1969 103.41 37.5627 103.184C31.7351 102.385 27.4261 99.8631 24.8985 98.0134Z" fill="#231F20"/>
<path d="M39.5176 80.7091C39.5228 86.0585 35.5712 92.8162 27.484 92.8372C20.8471 92.853 15.3978 87.4405 15.3926 80.8142C15.3873 74.109 20.7998 68.6229 27.4104 68.6282C34.1156 68.6334 39.5071 74.0144 39.5176 80.7091Z" fill="#0A26EA"/>
</svg>
