<svg width="247" height="62" viewBox="0 0 247 62" fill="none" xmlns="http://www.w3.org/2000/svg">
<g clip-path="url(#clip0_2180_401)">
<path d="M234.972 2.71582H241.056C242.648 2.71582 244.013 3.2847 245.094 4.42183C246.231 5.55897 246.8 6.92396 246.8 8.45931V11.9848H234.972V2.71582Z" fill="#00C0A5"/>
<path d="M82.2876 2.71583H76.2031V60.8324H88.0311V8.28865C88.0311 6.69642 87.4625 5.38862 86.3251 4.30806C85.1877 3.22751 83.823 2.71583 82.2876 2.71583ZM113.621 14.8851C107.195 14.8851 102.191 16.9891 98.5513 21.1403C95.0824 25.1778 93.3195 30.8075 93.3195 38.0294C93.3195 45.5924 95.1393 51.3928 98.722 55.4302C102.304 59.5812 107.365 61.6854 113.791 61.6854C119.08 61.6854 123.458 60.3773 126.984 57.8186C130.453 55.3165 132.841 51.7338 134.092 47.014H125.619C124.254 47.014 123.231 47.2984 122.492 47.867C121.752 48.4355 121.354 48.8906 121.241 49.2317L120.331 50.1416C120.046 50.426 119.762 50.5967 119.421 50.7104C118.056 51.5065 116.407 51.9045 114.531 51.9045C111.573 51.9045 109.413 50.9946 107.934 49.1748C106.342 47.4691 105.489 44.9101 105.375 41.3843H134.604C134.718 41.157 134.774 40.7588 134.774 40.1902V39.5079V38.3136C134.774 30.8644 132.955 25.064 129.372 20.9128C125.619 16.9322 120.387 14.8851 113.621 14.8851ZM105.375 33.8213C105.489 30.8644 106.342 28.6464 107.934 27.0541C109.526 25.4619 111.516 24.6658 114.019 24.6658C116.748 24.6658 118.795 25.4622 120.274 27.0541C121.639 28.5329 122.435 30.7506 122.662 33.8213H105.375ZM173.898 18.752C169.747 16.1361 165.141 14.8851 160.193 14.8851C155.36 15.1127 150.924 16.5343 146.944 19.093C142.963 21.7089 140.916 26.8266 140.916 34.4468V60.8324H152.744V32.1153C152.744 29.3859 153.54 27.4524 155.133 26.2011C156.725 24.9502 158.487 24.3248 160.535 24.3248C162.582 24.3248 164.402 24.9502 166.051 26.2011C167.7 27.4524 168.496 29.3859 168.496 32.1153V55.0889C168.496 56.7949 169.008 58.1596 170.088 59.2402C171.168 60.3207 172.533 60.8324 174.239 60.8324H180.153V34.5036C180.153 26.5994 178.049 21.3679 173.898 18.752ZM221.835 2.54517H216.092V21.8226C214.727 19.6618 212.964 17.9558 210.69 16.5912C208.529 15.4537 206.084 14.8851 203.241 14.8851C197.952 14.8851 193.63 17.1028 190.218 21.4816C186.977 25.7467 185.328 31.4329 185.328 38.5411C185.328 45.7631 186.977 51.4497 190.218 55.6006C191.924 57.7617 194.142 59.2971 196.985 60.2638C199.829 61.2303 202.672 61.6854 205.629 61.6854C211.031 61.6854 216.035 60.2638 220.698 57.4773C225.304 54.6341 227.636 49.2317 227.636 41.2705V8.28865C227.636 6.81019 227.067 5.50239 225.93 4.30806C224.736 3.11404 223.428 2.54517 221.835 2.54517ZM213.704 48.3221C211.998 50.7104 209.666 51.8476 206.595 51.8476C203.468 51.8476 201.023 50.6535 199.317 48.3221C197.611 45.9337 196.758 42.5217 196.758 38.0294C196.758 33.992 197.611 30.8075 199.317 28.5898C201.023 26.2014 203.297 25.064 206.254 25.064C209.268 25.064 211.713 26.2011 213.533 28.4188C215.239 30.8075 216.092 33.992 216.092 38.0294C216.092 42.5217 215.296 45.9906 213.704 48.3221ZM245.094 17.6145C243.956 16.4774 242.591 15.9085 241.056 15.9085H234.972V60.8327H246.8V21.5957C246.8 20.0601 246.231 18.6951 245.094 17.6145Z" fill="black"/>
<path d="M61.2478 18.0696L35.6583 0.952913C33.8385 -0.297997 31.5071 -0.297997 29.6876 0.839138L3.24504 18.0127C1.7097 19.0361 0.799805 20.7421 0.799805 22.5619V56.2829C0.799805 59.297 3.24504 61.6854 6.20197 61.6854H58.234C61.2478 61.6854 63.6362 59.2402 63.6362 56.2829V22.5619C63.6362 20.7421 62.7263 19.0364 61.2478 18.0696ZM52.8316 50.8808H37.6488V35.1291H26.8441V50.8808H11.6044V25.4619L32.5876 11.871L52.8316 25.405V50.8808Z" fill="#00C0A5"/>
</g>
<defs>
<clipPath id="clip0_2180_401">
<rect width="246" height="61.8075" fill="white" transform="translate(0.799805)"/>
</clipPath>
</defs>
</svg>
