<svg width="165" height="40" viewBox="0 0 165 40" fill="none" xmlns="http://www.w3.org/2000/svg">
<g clip-path="url(#clip0_2175_2)">
<path d="M56.5831 16.6145C56.5025 16.6145 56.4318 16.6683 56.4103 16.746L52.7515 29.9687H51.7927L48.0984 16.7455C48.0768 16.6681 48.0062 16.6145 47.9257 16.6145H44.2526C44.1328 16.6145 44.0468 16.7297 44.0807 16.8446L48.877 33.0895C48.8996 33.1657 48.9695 33.218 49.049 33.218H55.4595C55.539 33.218 55.609 33.1657 55.6315 33.0895L60.4293 16.8446C60.4632 16.7297 60.3771 16.6145 60.2573 16.6145H56.5831Z" fill="#14140F"/>
<path d="M68.9516 16.0427L68.9499 16.042C63.9055 16.0424 60.4961 19.6487 60.4961 24.9324C60.4961 30.2164 64.013 33.7525 69.0936 33.7525C73.0276 33.7525 76.2794 31.2839 76.943 27.9265C76.9644 27.818 76.8801 27.7185 76.7695 27.7185H73.2719C73.1954 27.7185 73.1276 27.7674 73.1006 27.839C72.471 29.5105 71.002 30.3971 69.0579 30.3971C66.3928 30.3971 64.6879 28.6835 64.4039 25.8271H76.8472C76.9421 25.8271 77.0207 25.7531 77.0253 25.6583C77.0516 25.1209 77.0486 24.6441 77.0162 24.2555C76.8393 19.078 73.7837 16.0438 68.9534 16.0434L68.9516 16.0427ZM64.5808 22.8976C65.1144 20.4341 66.6054 19.1479 68.9153 19.1479C71.2251 19.1479 72.7161 20.5044 73.0357 22.8976H64.5808Z" fill="#14140F"/>
<path d="M82.8736 9.82666H79.2886C79.1896 9.82666 79.1094 9.90693 79.1094 10.006V33.0348C79.1094 33.1339 79.1896 33.2141 79.2886 33.2141H82.8736C82.9726 33.2141 83.0528 33.1339 83.0528 33.0348V10.006C83.0528 9.90693 82.9726 9.82666 82.8736 9.82666Z" fill="#14140F"/>
<path d="M113.178 16.0424L113.176 16.0417C108.131 16.0422 104.722 19.6484 104.722 24.9321C104.722 30.2162 108.239 33.7523 113.32 33.7523C117.254 33.7523 120.505 31.2837 121.169 27.9263C121.19 27.8177 121.106 27.7183 120.995 27.7183H117.498C117.421 27.7183 117.354 27.7672 117.327 27.8387C116.697 29.5103 115.228 30.3968 113.284 30.3968C110.619 30.3968 108.914 28.6833 108.63 25.8269H121.073C121.168 25.8269 121.247 25.7529 121.251 25.6581C121.278 25.1207 121.275 24.6438 121.242 24.2553C121.065 19.0777 118.01 16.0436 113.179 16.0432L113.178 16.0424ZM108.807 22.8974C109.34 20.4339 110.831 19.1476 113.141 19.1476C115.451 19.1476 116.942 20.5041 117.262 22.8974H108.807Z" fill="#14140F"/>
<path d="M143.265 23.5379L149.888 16.7404C149.902 16.7261 149.91 16.707 149.91 16.6871C149.91 16.6448 149.875 16.6106 149.833 16.6106H145.084C145.035 16.6106 144.988 16.6304 144.954 16.6655L138.47 23.3946V10.006C138.47 9.90693 138.39 9.82666 138.291 9.82666H134.706C134.607 9.82666 134.527 9.90693 134.527 10.006V33.0348C134.527 33.1339 134.607 33.2141 134.706 33.2141H138.291C138.39 33.2141 138.47 33.1339 138.47 33.0348V26.5535H140.808L145.593 33.1402C145.627 33.1867 145.68 33.2141 145.738 33.2141H150.131C150.205 33.2141 150.265 33.1542 150.265 33.0803C150.265 33.0517 150.256 33.0239 150.239 33.0009L143.265 23.5379Z" fill="#14140F"/>
<path d="M95.2446 16.0417C92.5894 16.0417 90.6976 17.979 90.378 18.8336H89.609V16.7932C89.609 16.6941 89.5287 16.6139 89.4297 16.6139H85.9763C85.8734 16.6139 85.7916 16.7003 85.7966 16.8031C85.8287 17.4621 85.8581 18.485 85.8581 19.6839V39.8207C85.8581 39.9197 85.9384 39.9999 86.0374 39.9999H89.5866C89.6856 39.9999 89.7659 39.9197 89.7659 39.8207V31.9383H90.5349C91.2683 33.0955 93.0759 33.7867 95.0591 33.7867C100.068 33.7867 103.266 29.8233 103.266 24.8963C103.266 19.9693 100.359 16.0417 95.2446 16.0417ZM94.4185 30.3237C91.5764 30.3237 89.5519 28.1456 89.5519 24.8963C89.5519 21.647 91.5764 19.5405 94.4185 19.5405C97.2605 19.5405 99.2152 21.647 99.2152 24.8963C99.2152 28.1456 97.2263 30.3237 94.4185 30.3237Z" fill="#14140F"/>
<path d="M42.329 16.8005C42.329 16.7015 42.2487 16.6212 42.1497 16.6212H38.6005C38.5015 16.6212 38.4212 16.7015 38.4212 16.8005V18.2831H37.6522C36.8033 16.746 35.1112 16.0046 33.128 16.0046C28.1187 16.0046 24.9214 19.968 24.9214 24.895C24.9214 29.822 27.8277 33.7495 32.9425 33.7495C35.5977 33.7495 37.1072 32.4002 37.8091 31.3879H38.5781V32.9981C38.5781 33.0971 38.6584 33.1774 38.7574 33.1774H42.2108C42.3137 33.1774 42.3955 33.091 42.3905 32.9882C42.3584 32.3292 42.329 31.3063 42.329 30.1074V16.8005ZM33.7672 30.2522C30.9965 30.2522 28.9705 28.1457 28.9705 24.8964C28.9705 21.6471 30.9594 19.469 33.7672 19.469C36.575 19.469 38.6338 21.6471 38.6338 24.8964C38.6338 28.1457 36.6092 30.2522 33.7672 30.2522Z" fill="#14140F"/>
<path d="M8.33438 11.2328C8.33438 11.1337 8.25411 11.0535 8.15508 11.0535H4.57018C4.47116 11.0535 4.39089 11.1337 4.39089 11.2328V16.6057H0.979098C0.880077 16.6057 0.799805 16.6859 0.799805 16.785V19.6398C0.799805 19.7388 0.880077 19.8191 0.979098 19.8191H4.39089V29.9384C4.39089 31.8111 5.9018 33.3296 7.76511 33.3296H11.9744C12.0735 33.3296 12.1537 33.2494 12.1537 33.1503V30.2668C12.1537 30.1678 12.0735 30.0875 11.9744 30.0875H8.33295V19.8191H12.7691C12.8682 19.8191 12.9484 19.7388 12.9484 19.6398V16.785C12.9484 16.6859 12.8682 16.6057 12.7691 16.6057H8.33438V11.2328Z" fill="#14140F"/>
<path d="M19.6184 18.3266H18.8494L18.8405 16.787C18.8399 16.6884 18.7598 16.6088 18.6612 16.6088H15.084C14.9816 16.6088 14.9 16.6941 14.9045 16.7963C14.9371 17.542 14.9673 18.5958 14.9673 19.6788V33.0316C14.9673 33.1306 15.0476 33.2109 15.1466 33.2109H18.7315C18.8305 33.2109 18.9108 33.1306 18.9108 33.0316V24.9629C18.9108 21.7853 20.687 20.0359 23.6718 20.0359C23.9613 20.0359 24.2507 20.0597 24.5402 20.0879C24.6459 20.0982 24.7375 20.0154 24.7375 19.9093V16.6003C24.7375 16.5204 24.6847 16.4499 24.6066 16.4332C24.4017 16.3895 24.1064 16.3505 23.8073 16.332C21.9697 16.3836 20.4203 16.874 19.6199 18.3252L19.6184 18.3266Z" fill="#14140F"/>
<path d="M127.821 18.3264H127.052L127.043 16.7868C127.042 16.6882 126.962 16.6085 126.864 16.6085H123.287C123.184 16.6085 123.103 16.6938 123.107 16.7961C123.14 17.5418 123.17 18.5956 123.17 19.6786V33.0313C123.17 33.1303 123.25 33.2106 123.349 33.2106H126.934C127.033 33.2106 127.113 33.1303 127.113 33.0313V24.9626C127.113 21.785 128.89 20.0356 131.874 20.0356C132.164 20.0356 132.453 20.0594 132.743 20.0876C132.848 20.0979 132.94 20.0152 132.94 19.909V16.6C132.94 16.5202 132.887 16.4497 132.809 16.433C132.604 16.3893 132.309 16.3503 132.01 16.3318C130.172 16.3834 128.623 16.8738 127.822 18.3249L127.821 18.3264Z" fill="#14140F"/>
<path d="M154.893 0.155068C154.905 0.0662313 154.981 0 155.071 0H156.316C156.405 0 156.481 0.0662312 156.493 0.155068L157.218 5.47015C157.234 5.58984 157.13 5.69109 157.011 5.67123L155.723 5.45654C155.703 5.45329 155.683 5.45329 155.664 5.45654L154.376 5.67123C154.257 5.69109 154.152 5.58984 154.169 5.47015L154.893 0.155068Z" fill="#14140F"/>
<path d="M163.836 9.61885C163.929 9.61111 164.001 9.53343 164.001 9.44018V8.21081C164.001 8.11828 163.93 8.04094 163.838 8.0323L155.71 7.27031C155.699 7.26927 155.688 7.26927 155.677 7.27031L147.549 8.0323C147.456 8.04094 147.386 8.11828 147.386 8.21081V9.44018C147.386 9.53343 147.458 9.61111 147.55 9.61885L153.551 10.1189C153.593 10.1224 153.633 10.1408 153.663 10.1708L154.093 10.6004C154.121 10.6284 154.138 10.6648 154.144 10.704L154.894 16.4583C154.906 16.5476 154.982 16.6144 155.072 16.6144H156.315C156.405 16.6144 156.481 16.5476 156.492 16.4583L157.243 10.704C157.248 10.6648 157.266 10.6284 157.294 10.6004L157.724 10.1708C157.754 10.1408 157.793 10.1224 157.836 10.1189L163.836 9.61885Z" fill="#14140F"/>
</g>
<defs>
<clipPath id="clip0_2175_2">
<rect width="164" height="40" fill="white" transform="translate(0.799805)"/>
</clipPath>
</defs>
</svg>
