<svg width="249" height="56" viewBox="0 0 249 56" fill="none" xmlns="http://www.w3.org/2000/svg">
<g clip-path="url(#clip0_2180_425)">
<path fill-rule="evenodd" clip-rule="evenodd" d="M13.5177 17.3955V41.1164C5.93295 37.4078 0.799805 30.1306 0.799805 21.8038V17.4654H13.5177V17.3955Z" fill="#9DB6FF"/>
<path fill-rule="evenodd" clip-rule="evenodd" d="M30.4152 7.90698V43.4675C28.4232 43.984 26.278 44.2791 24.0562 44.2791C21.8344 44.2791 19.7658 43.984 17.6973 43.4675V7.90698H30.4152Z" fill="#4370F5"/>
<path fill-rule="evenodd" clip-rule="evenodd" d="M34.1846 0V41.1163C41.7694 37.3132 46.9026 29.8506 46.9026 21.3116V0H34.1846Z" fill="#002EB9"/>
<path fill-rule="evenodd" clip-rule="evenodd" d="M58.0303 42.6977V0H85.056V6.71167H65.4806V18.0644H83.2299V24.6333H65.4806V35.986H85.056V42.6977H58.0303Z" fill="white"/>
<path fill-rule="evenodd" clip-rule="evenodd" d="M105.418 43H98.5328L86.7998 14H94.3876L102.046 34.7445L109.563 14H116.8L105.418 43Z" fill="white"/>
<path fill-rule="evenodd" clip-rule="evenodd" d="M137.992 25.1546C137.849 21.8467 135.565 18.8834 130.784 18.8834C126.36 18.8834 123.862 22.1224 123.648 25.1546H137.992ZM144.7 34.3201C143.13 39.2819 138.491 43.279 131.427 43.279C123.506 43.279 116.441 37.6969 116.441 28.1179C116.441 19.159 123.292 13.2324 130.713 13.2324C139.776 13.2324 145.056 19.0212 145.056 27.9111C145.056 29.0138 144.914 29.9785 144.842 30.0475H123.434C123.648 34.3201 127.074 37.4213 131.427 37.4213C135.637 37.4213 137.778 35.2849 138.777 32.4595L144.7 34.3201Z" fill="white"/>
<path fill-rule="evenodd" clip-rule="evenodd" d="M155.922 42.6976H148.646V13.5034H155.7V17.4102C157.704 14.0717 161.342 12.6511 164.683 12.6511C172.108 12.6511 175.672 17.8364 175.672 24.2293V42.6976H168.396V25.4368C168.396 21.8142 166.688 18.9729 162.159 18.9729C158.001 18.9729 155.848 22.0273 155.848 25.863L155.922 42.6976Z" fill="white"/>
<path fill-rule="evenodd" clip-rule="evenodd" d="M182.031 28.2632V0H189.144V27.8284C189.144 33.9159 192.416 37.322 197.821 37.322C203.298 37.322 206.499 33.9884 206.499 27.8284V0H213.826V28.2632C213.826 38.6989 206.855 44.2791 197.893 44.2791C189.001 44.2791 182.031 38.6989 182.031 28.2632Z" fill="#4370F5"/>
<path fill-rule="evenodd" clip-rule="evenodd" d="M233.661 20.3893C229.003 20.3893 225.582 23.9984 225.582 29.3768C225.582 34.8967 228.93 38.5059 233.661 38.5059C238.392 38.5059 241.74 34.8967 241.74 29.3768C241.667 23.9984 238.465 20.3893 233.661 20.3893ZM218.595 55.3487V14.8694H225.437V18.8324C226.892 16.3555 230.313 14.2324 234.971 14.2324C243.778 14.2324 248.8 20.8139 248.8 29.3768C248.8 38.0813 243.341 44.6627 234.753 44.6627C230.459 44.6627 227.183 42.8935 225.655 40.629V55.278L218.595 55.3487Z" fill="#4370F5"/>
</g>
<defs>
<clipPath id="clip0_2180_425">
<rect width="248" height="56" fill="white" transform="translate(0.799805)"/>
</clipPath>
</defs>
</svg>
