<svg xmlns:xlink="http://www.w3.org/1999/xlink" xmlns="http://www.w3.org/2000/svg" id="Layer_2" viewBox="0 0 595 124.34" width="595"  height="124.34" ><defs><style>.cls-1{fill:#004449;}.cls-2{fill:#10ff80;}</style></defs><g id="Layer_2-2"><g id="CRlg0S"><path class="cls-2" d="M307.37,123.06c-.04.2-.08.4-.13.6,0,.04-.04.15-.04.15-.04.18-.08.36-.12.53h-6.81c.19-.62.34-1.25.47-1.9,0,0,.09-.34.13-.49.91-4.66.47-9.18-1.51-13.51-.95-2.07-2.12-3.93-3.58-5.53-1.53-1.68-3.36-3.07-5.56-4.1-1.86-.87-3.79-1.51-5.87-1.56-.47,0-.95.09-1.4.22-.19.06-.44.37-.44.54.01.22.24.54.44.59.55.16,1.13.28,1.71.31,4.16.19,7.11,2.36,9.42,5.63.04.05.04.12.09.22-1.67.32-3.32.4-4.97.29-2.69-.19-5.3-.72-7.75-1.89-1.19-.57-2.22-1.34-3.09-2.34-2.21-2.49-1.28-6.04.72-7.67,1.72-1.41,3.76-1.86,5.91-1.84,3,0,5.8.87,8.44,2.19,3.06,1.51,5.62,3.41,7.69,5.67,3.23,3.5,5.3,7.86,6.32,13,.72,3.63.61,7.25-.06,10.88h-.01Z"/></g><g id="CRlg0S-2"><path class="cls-2" d="M324.78,41.26c-.03.12-.05.24-.08.36l-.09.49v.03c-1.58,7.19-5.19,13.05-11.19,17.47-1.34-1.82-2.87-3.41-4.74-4.73,2.53-1.63,4.57-3.68,6.19-6.14,1.61-2.44,2.69-5.11,3.28-8l.28-1.44c.7-4.36.21-8.59-1.66-12.67-1.94-4.24-4.84-7.61-9.15-9.63-1.86-.87-3.79-1.51-5.87-1.55-.47-.01-.95.08-1.4.22-.19.06-.44.36-.44.54.01.22.24.54.44.6.55.16,1.13.27,1.71.3,4.16.19,7.11,2.37,9.42,5.63.04.06.05.12.09.22-1.66.32-3.32.4-4.97.29-2.69-.18-5.3-.72-7.74-1.89-1.19-.57-2.21-1.34-3.1-2.34-2.21-2.49-1.28-6.04.72-7.67,1.72-1.4,3.76-1.85,5.91-1.84,2.99,0,5.8.87,8.44,2.19,7.79,3.86,12.34,10.21,14.01,18.67.72,3.63.62,7.26-.05,10.88h-.01Z"/></g><g id="CRlg0S-3"><path class="cls-2" d="M333.41.62c-.02.18-.07.47-.07.47-1.58,7.2-5.18,13.07-11.19,17.5-1.34-1.82-2.87-3.41-4.74-4.73,2.53-1.63,4.57-3.68,6.19-6.14,1.56-2.36,2.62-4.94,3.21-7.72h6.7c-.04.2-.08.41-.11.62h0Z"/></g><g id="CRlg0S-4"><path class="cls-2" d="M316.05,82.29c-.04.2-.09.39-.14.59h.01c-1.57,7.2-5.17,13.07-11.18,17.5-1.34-1.82-2.87-3.41-4.74-4.73,2.53-1.63,4.57-3.68,6.19-6.14,1.61-2.44,2.7-5.11,3.28-8h.02c.01-.11.03-.23.05-.34.91-4.66.48-9.18-1.51-13.51-1.94-4.24-4.84-7.61-9.15-9.63-1.86-.87-3.79-1.51-5.87-1.55-.47,0-.95.08-1.4.22-.19.06-.44.37-.44.54.01.22.24.54.44.6.55.16,1.13.27,1.71.3,4.16.19,7.11,2.36,9.42,5.63.04.05.05.12.09.22-1.66.32-3.32.4-4.97.29-2.69-.18-5.3-.72-7.74-1.89-1.19-.57-2.22-1.34-3.1-2.34-2.21-2.49-1.28-6.04.72-7.67,1.72-1.4,3.76-1.85,5.91-1.84,2.99,0,5.8.87,8.44,2.19,7.79,3.86,12.34,10.21,14.01,18.67.72,3.63.62,7.26-.05,10.88h0Z"/></g><path class="cls-1" d="M343.03,31.86h10.73v17.09c1.48-3.33,5.7-7.03,13.84-7.03,10.21,0,18.95,8.44,18.95,21.02v28.12h-10.73v-28.12c0-6.88-4.44-11.47-11.03-11.47s-11.03,4.59-11.03,11.47v28.12h-10.73V31.86Z"/><path class="cls-1" d="M419.92,92.48c-13.91,0-25.24-11.32-25.24-25.24s11.32-25.09,25.24-25.09c12.8,0,26.79,10.73,24.87,28.64h-38.63c1.41,7.03,7.1,12.06,13.76,12.06,5.4,0,10.21-3.33,12.51-8.51h11.54c-3.03,10.44-12.66,18.13-24.05,18.13ZM433.02,61.84c-1.92-6.07-7.1-10.06-13.1-10.06s-11.32,4.07-13.32,10.14l26.42-.07Z"/><path class="cls-1" d="M488.29,91.07v-4.74c-2.15,2.66-8.44,6.14-15.17,6.14-12.43,0-23.76-11.32-23.76-25.24s11.32-25.09,25.24-25.09,24.42,11.25,24.42,25.09v23.83h-10.73ZM474.6,82.85c7.7,0,14.13-6.73,14.13-15.62s-6.44-15.47-14.13-15.47-14.13,6.66-14.13,15.47,6.44,15.62,14.13,15.62Z"/><path class="cls-1" d="M517.89,31.86v59.2h-10.73V31.86h10.73Z"/><path class="cls-1" d="M537.5,31.86v11.1h8.81v9.62h-8.81v38.48h-10.73V31.86h10.73Z"/><path class="cls-1" d="M551.49,31.86h10.73v17.09c1.48-3.33,5.7-7.03,13.84-7.03,10.21,0,18.95,8.44,18.95,21.02v28.12h-10.73v-28.12c0-6.88-4.44-11.47-11.03-11.47s-11.03,4.59-11.03,11.47v28.12h-10.73V31.86Z"/><path class="cls-1" d="M38.93,85.93v-4.74c-2.15,2.66-8.44,6.14-15.17,6.14-12.43,0-23.76-11.32-23.76-25.24s11.32-25.09,25.24-25.09,24.42,11.25,24.42,25.09v23.83h-10.73ZM25.24,77.71c7.7,0,14.13-6.73,14.13-15.62s-6.44-15.47-14.13-15.47-14.13,6.66-14.13,15.47,6.44,15.62,14.13,15.62Z"/><path class="cls-1" d="M62.6,37.82l13.91,36.04,13.84-36.04h10.73l-19.24,48.1h-10.73l-19.24-48.1h10.73Z"/><path class="cls-1" d="M104.04,62.1c0-13.84,11.32-25.09,25.24-25.09s25.24,11.25,25.24,25.09-11.32,25.24-25.24,25.24-25.24-11.32-25.24-25.24ZM129.28,77.71c7.7,0,14.13-6.73,14.13-15.62s-6.44-15.47-14.13-15.47-14.13,6.66-14.13,15.47,6.44,15.62,14.13,15.62Z"/><path class="cls-1" d="M184.19,87.33c-13.91,0-25.24-11.32-25.24-25.24s11.32-25.09,25.24-25.09c12.8,0,23.39,9.62,24.87,21.98h-11.17c-1.26-7.33-6.96-12.36-13.69-12.36-7.7,0-14.13,6.66-14.13,15.47s6.44,15.62,14.13,15.62c6.36,0,11.92-4.66,13.54-11.47h11.17c-1.92,11.92-12.29,21.09-24.72,21.09Z"/><path class="cls-1" d="M252.42,85.93v-4.74c-2.15,2.66-8.44,6.14-15.17,6.14-12.43,0-23.76-11.32-23.76-25.24s11.32-25.09,25.24-25.09,24.42,11.25,24.42,25.09v23.83h-10.73ZM238.72,77.71c7.7,0,14.13-6.73,14.13-15.62s-6.44-15.47-14.13-15.47-14.13,6.66-14.13,15.47,6.44,15.62,14.13,15.62Z"/></g></svg>